# xmcd CD database file
#
# Track frame offsets:
#	150
#	21547
#	39905
#	57187
#	76007
#	97092
#	120582
#	131820
#	149405
#	167875
#	190850
#	210347
#	230512
#	255237
#	277012
#	293125
#	307270
#	331260
#
# Disc length: 4611 seconds
#
# Revision: 3
# Processed by: cddbd v1.5.2PL0 Copyright (c) Steve Scherf et al.
# Submitted via: CDex 1.70beta1
#
DISCID=07120112
DTITLE=山下久美子 - Sweet-est
DYEAR=1992
DGENRE=Rock
TTITLE0=抱きしめてオンリィ・ユー
TTITLE1=ジョディ
TTITLE2=シャンプー
TTITLE3=涙がとまらない
TTITLE4=Lover Man
TTITLE5=時代遅れの恋心
TTITLE6=秋ラメきれないNight Movie
TTITLE7=Lovin' You
TTITLE8=オートリバースで恋してる
TTITLE9=最後のドアーまで
TTITLE10=Cry For The Moon
TTITLE11=瞳いっぱいの涙
TTITLE12=Sweet Pain
TTITLE13=スローナンバーのあとで
TTITLE14=Will be true,will be blue
TTITLE15=I Can't Get You
TTITLE16=Boy Friend (イタリア語)
TTITLE17=Girl Friend (フランス語)
EXTD=YEAR: 1992
EXTT0=
EXTT1=
EXTT2=
EXTT3=
EXTT4=
EXTT5=
EXTT6=
EXTT7=
EXTT8=
EXTT9=
EXTT10=
EXTT11=
EXTT12=
EXTT13=
EXTT14=
EXTT15=
EXTT16=
EXTT17=
PLAYORDER=
